<?xml version="1.0" encoding="UTF-8"?>
<svg width="24px" height="24px" viewBox="0 0 24 24" version="1.1" xmlns="http://www.w3.org/2000/svg">
    <title>Cell Tower</title>
    <g stroke="none" stroke-width="1" fill="none" fill-rule="evenodd">
        <path d="M12,2 L12,2 C12.5522847,2 13,2.44771525 13,3 L13,21 C13,21.5522847 12.5522847,22 12,22 L12,22 C11.4477153,22 11,21.5522847 11,21 L11,3 C11,2.44771525 11.4477153,2 12,2 Z" fill="#FF00FF"></path>
        <path d="M7,6 L17,6 C17.5522847,6 18,6.44771525 18,7 L18,7 C18,7.55228475 17.5522847,8 17,8 L7,8 C6.44771525,8 6,7.55228475 6,7 L6,7 C6,6.44771525 6.44771525,6 7,6 Z" fill="#FF00FF"></path>
        <path d="M5,10 L19,10 C19.5522847,10 20,10.4477153 20,11 L20,11 C20,11.5522847 19.5522847,12 19,12 L5,12 C4.44771525,12 4,11.5522847 4,11 L4,11 C4,10.4477153 4.44771525,10 5,10 Z" fill="#FF00FF"></path>
        <path d="M3,14 L21,14 C21.5522847,14 22,14.4477153 22,15 L22,15 C22,15.5522847 21.5522847,16 21,16 L3,16 C2.44771525,16 2,15.5522847 2,15 L2,15 C2,14.4477153 2.44771525,14 3,14 Z" fill="#FF00FF"></path>
        <circle cx="12" cy="4" r="1" fill="#FF00FF"></circle>
        <path d="M9,18 L15,18 L15,20 C15,21.1045695 14.1045695,22 13,22 L11,22 C9.8954305,22 9,21.1045695 9,20 L9,18 Z" fill="#FF00FF"></path>
    </g>
</svg>
